<svg width="440" height="576" viewBox="0 0 440 576" fill="none" xmlns="http://www.w3.org/2000/svg">
<path d="M438.99 576.034L363.991 575.509L367.409 58.6225C367.546 37.9123 384.446 21.2407 405.156 21.3856C425.866 21.5305 442.544 38.4369 442.407 59.1472L438.99 576.034Z" fill="url(#paint0_linear_0_1)"/>
<path d="M148.996 574.006L63.9984 573.411L67.1276 100.166C67.2736 78.0748 85.3002 60.2919 107.391 60.4464L112.391 60.4814C134.482 60.6359 152.272 78.6694 152.126 100.76L148.996 574.006Z" fill="url(#paint1_linear_0_1)"/>
<path d="M74.9982 573.488L-3.00002 572.942L0.407763 57.5553C0.550179 36.0167 18.1261 18.6782 39.6647 18.8289C61.2033 18.9796 78.5484 36.5623 78.406 58.1009L74.9982 573.488Z" fill="url(#paint2_linear_0_1)"/>
<path d="M211.995 574.446L137.997 573.929L141.547 36.9992C141.682 16.5651 158.357 0.115858 178.791 0.258801C199.225 0.401743 215.68 17.0827 215.545 37.5169L211.995 574.446Z" fill="url(#paint3_linear_0_1)"/>
<path d="M256.994 574.761L200.995 574.369L204.476 47.9826C204.578 32.5189 217.197 20.0708 232.66 20.179C248.124 20.2872 260.577 32.9107 260.475 48.3743L256.994 574.761Z" fill="url(#paint4_linear_0_1)"/>
<path d="M315.993 575.174L245.994 574.684L249.156 96.439C249.284 77.1094 265.058 61.5493 284.387 61.6845C303.717 61.8198 319.283 77.5991 319.155 96.9287L315.993 575.174Z" fill="url(#paint5_linear_0_1)"/>
<path d="M374.991 575.586L304.993 575.097L307.863 141.079C307.99 121.75 323.764 106.19 343.093 106.325C362.423 106.46 377.989 122.239 377.861 141.569L374.991 575.586Z" fill="url(#paint6_linear_0_1)"/>
<defs>
<linearGradient id="paint0_linear_0_1" x1="401.491" y1="575.772" x2="405.369" y2="21.3871" gradientUnits="userSpaceOnUse">
<stop stop-color="#41A261"/>
<stop offset="1" stop-color="#03460F"/>
</linearGradient>
<linearGradient id="paint1_linear_0_1" x1="106.497" y1="573.708" x2="110.088" y2="60.4652" gradientUnits="userSpaceOnUse">
<stop stop-color="#41A261"/>
<stop offset="1" stop-color="#03460F"/>
</linearGradient>
<linearGradient id="paint2_linear_0_1" x1="35.9991" y1="573.215" x2="39.8772" y2="18.8304" gradientUnits="userSpaceOnUse">
<stop stop-color="#41A261"/>
<stop offset="1" stop-color="#03460F"/>
</linearGradient>
<linearGradient id="paint3_linear_0_1" x1="174.996" y1="574.187" x2="179.011" y2="0.260339" gradientUnits="userSpaceOnUse">
<stop stop-color="#41A261"/>
<stop offset="1" stop-color="#03460F"/>
</linearGradient>
<linearGradient id="paint4_linear_0_1" x1="228.995" y1="574.565" x2="232.873" y2="20.1805" gradientUnits="userSpaceOnUse">
<stop stop-color="#41A261"/>
<stop offset="1" stop-color="#03460F"/>
</linearGradient>
<linearGradient id="paint5_linear_0_1" x1="280.993" y1="574.929" x2="284.584" y2="61.6859" gradientUnits="userSpaceOnUse">
<stop stop-color="#41A261"/>
<stop offset="1" stop-color="#03460F"/>
</linearGradient>
<linearGradient id="paint6_linear_0_1" x1="339.992" y1="575.342" x2="343.273" y2="106.326" gradientUnits="userSpaceOnUse">
<stop stop-color="#41A261"/>
<stop offset="1" stop-color="#03460F"/>
</linearGradient>
</defs>
</svg>
